<svg xmlns="http://www.w3.org/2000/svg" viewBox="0 0 880 200" role="img" aria-label="TrustDeck — security questionnaires answered from evidence, never guessed">
  <defs>
    <linearGradient id="bg" x1="0" y1="0" x2="1" y2="1">
      <stop offset="0" stop-color="#0d1b2a"/>
      <stop offset="1" stop-color="#1b2a41"/>
    </linearGradient>
    <linearGradient id="shield" x1="0" y1="0" x2="0" y2="1">
      <stop offset="0" stop-color="#3ddc84"/>
      <stop offset="1" stop-color="#1fa864"/>
    </linearGradient>
  </defs>
  <rect x="0" y="0" width="880" height="200" rx="16" fill="url(#bg)"/>
  <!-- shield -->
  <g transform="translate(52,38)">
    <path d="M62 0 L124 22 L124 66 C124 104 96 128 62 140 C28 128 0 104 0 66 L0 22 Z"
          fill="url(#shield)" opacity="0.95"/>
    <path d="M34 68 L54 88 L92 46" fill="none" stroke="#0d1b2a" stroke-width="12"
          stroke-linecap="round" stroke-linejoin="round"/>
  </g>
  <!-- wordmark -->
  <text x="216" y="92" font-family="Segoe UI, Helvetica, Arial, sans-serif"
        font-size="52" font-weight="700" fill="#f5f7fa">TrustDeck</text>
  <text x="218" y="128" font-family="Segoe UI, Helvetica, Arial, sans-serif"
        font-size="18" fill="#9fb3c8">Security questionnaires, answered from your evidence — never guessed.</text>
  <!-- confidence legend -->
  <g font-family="Segoe UI, Helvetica, Arial, sans-serif" font-size="15">
    <circle cx="226" cy="160" r="7" fill="#3ddc84"/>
    <text x="240" y="165" fill="#c9d6e3">evidenced</text>
    <circle cx="342" cy="160" r="7" fill="#f2c94c"/>
    <text x="356" y="165" fill="#c9d6e3">confirm in 1 min</text>
    <circle cx="500" cy="160" r="7" fill="#eb5757"/>
    <text x="514" y="165" fill="#c9d6e3">routed to you — never fabricated</text>
  </g>
</svg>
